<?xml version="1.0" encoding="utf-8"?>
<!-- Generator: Adobe Illustrator 15.1.0, SVG Export Plug-In . SVG Version: 6.00 Build 0)  -->
<!DOCTYPE svg PUBLIC "-//W3C//DTD SVG 1.1//EN" "http://www.w3.org/Graphics/SVG/1.1/DTD/svg11.dtd">
<svg version="1.1" id="Layer_1" xmlns="http://www.w3.org/2000/svg" xmlns:xlink="http://www.w3.org/1999/xlink" x="0px" y="0px"
	 width="70.87px" height="70.87px" viewBox="0 0 70.87 70.87" enable-background="new 0 0 70.87 70.87" xml:space="preserve">
<g id="SvgjsG1012_1_" transform="translate(165.3306528690223,148.51812895539945) scale(1.1448327276211683)" xmlns:name="symbol_mainfill">
	<g>
		<g>
			<path fill="#FFFFFF" stroke="#FFFFFF" stroke-miterlimit="10" d="M-84.922-86.229c0,0-1.356,3.369-3.269,2.919
				c-0.355-1.095-1.24-2.221-3.909-1.483v-2.743c0.009-0.01,0.015-0.02,0.022-0.031c0.488-0.684,0.744-1.413,0.867-1.988
				c0.148,0.043,2.191,0.425,2.191-2.448c0-1.501-1.309-4.473-3.968-5.202c-0.684-0.102-1.367,0.242-1.713,0.525
				c-0.456-0.116-2.61-0.116-3.067,0.002c-0.271-0.225-0.645-0.524-1.175-0.566c-0.041-0.328-0.136-0.655-0.288-0.967l-3.789-7.808
				c-2.762-6.065-4.888-7.774-8.931-7.582c2.139-1.234,3.409-3.197,3.409-5.648c0-3.526-2.858-6.384-6.382-6.384
				c-3.526,0-6.384,2.858-6.384,6.384c0,2.451,1.498,4.652,3.409,5.648c-3.903-0.162-6.135,1.517-8.897,7.582l-3.789,7.81
				c-0.752,1.539-0.143,3.533,1.66,4.251l-2.027,2.03c-0.38-0.038-1.976-0.038-2.356,0l-2.522-2.523c0,0-1.544,2.112-1.455,4.605
				c-0.072-0.235-0.812-2.627-3.458-2.907c-0.722-0.06-1.565,0.479-1.653,1.23c-0.242,2.076,1.414,1.994,1.657,2.469
				c0.121,0.234,0.139,0.792-0.398,2.078c-2.27,5.391,1.222,7.157,1.92,7.447c0.169,0.459,0.35,0.887,0.51,1.242
				c-0.52,0.377-0.937,0.995-0.937,1.899c0,1.087,0.811,2.209,2.17,2.209c0.386,0,0.695-0.114,0.933-0.278
				c0.399,0.266,0.88,0.428,1.385,0.428c2.064,0,2.832-0.93,2.98-1.117c0.147,0.181,0.88,1.117,2.972,1.117
				c0.505,0,0.984-0.162,1.384-0.428c0.239,0.164,0.549,0.278,0.935,0.278c1.358,0,2.17-1.123,2.17-2.209
				c0-0.904-0.416-1.522-0.937-1.899c1.262-2.817,1.283-4.504,0.761-5.374c-0.222-0.37-1.027-1.418-3.212-0.778v-0.491
				c0.688-0.754,1.394-1.991,0.966-3.75c0.626-2.627-0.921-5.065-0.921-5.065c1.523,0.155,2.656-0.865,3.081-1.728l2.573-4.969
				l-2.873,14.276h3.99v8.755c0,1.827,1.486,3.317,3.315,3.317c1.382,0,2.569-0.853,3.066-2.057
				c0.493,1.215,1.686,2.075,3.076,2.075c1.827,0,3.315-1.486,3.315-3.315v-8.774h4.093l-2.919-14.143l2.504,4.836
				c0.3,0.609,0.954,1.295,1.846,1.593c-1.401,4.014,1.114,4.659,1.744,4.33c0.142,1.237,0.867,1.994,0.896,2.034v2.725
				c-2.189-0.839-3.277,0.331-3.596,0.815c-1.088,1.953,0.118,5.145,0.254,5.534c-0.583,0.384-1.066,1.039-1.066,2.032
				c0,1.215,1.152,2.281,2.465,2.281c0.85,0,1.506-0.351,1.653-0.435c0.404,0.271,0.892,0.435,1.406,0.435
				c1.036,0,2.388-0.283,3.008-1.131c0.599,0.848,1.979,1.131,3.018,1.131c0.512,0,1-0.164,1.406-0.435
				c0.145,0.084,0.804,0.435,1.651,0.435c1.314,0,2.467-1.066,2.467-2.281c0-0.993-0.485-1.648-1.066-2.032
				c0.007-0.019,0.014-0.039,0.02-0.06C-82.641-80.447-84.922-86.229-84.922-86.229z M-120.569-119.247
				c0-3.117,2.527-5.643,5.642-5.643c3.117,0,5.643,2.526,5.643,5.643c0,3.117-2.527,5.643-5.643,5.643
				C-118.042-113.604-120.569-116.131-120.569-119.247z M-137.259-87.607c0.015,0.96,0.386,1.848,1.001,2.569v0.599
				c-0.485-0.142-1.233-0.316-2.075-0.102C-138.25-84.864-137.402-87.022-137.259-87.607z M-137.238-75.075
				c-0.062,0.019-1.428,0.155-1.428-1.218c0-1.305,1.306-1.419,1.306-1.419s-0.647-1.21-1.086-2.539
				c-0.574-0.171-3.932-1.39-1.81-6.393c0.56-1.341,1.138-3.23-0.732-3.76c-0.404-0.113-0.63-0.543-0.509-0.943
				c0.098-0.329,0.521-0.662,0.944-0.51c1.048,0.316,1.735,0.843,2.1,1.614c0.48,1.017,0.349,2.387-0.403,4.185
				c-0.629,1.506-0.939,3.156,0.02,3.878c-0.032-2.179,2.079-1.416,2.615-1.235v5.035c-0.701,0.346-1.353,1.044-1.353,2.196
				C-137.573-75.786-137.449-75.407-137.238-75.075z M-129.147-74.916c-1.686,0-2.593-0.65-2.593-1.793c0-0.493,0-1.385,0-2.243
				c0.885-0.206,1.544-1.001,1.544-1.95c-0.111,1-0.972,1.556-2.005,1.556c-1.03,0-1.894-0.556-2.005-1.556
				c0,0.962,0.677,1.766,1.583,1.959c0,0.853,0,1.735,0,2.233c0,1.17-0.909,1.795-2.593,1.795c-0.812,0-1.487-0.674-1.487-1.3
				c0-1.361,1.361-1.479,1.361-1.479v-6.568c0.887,0.597,1.999,0.955,3.209,0.955c1.164,0,2.242-0.331,3.11-0.889v6.502
				c0,0,1.36,0.118,1.36,1.479C-127.661-75.588-128.335-74.916-129.147-74.916z M-126.799-83.787c3.05,0-0.186,6.043-0.186,6.043
				s1.322,0.114,1.322,1.436c0,1.416-1.384,1.252-1.447,1.235c0.215-0.338,0.341-0.723,0.341-1.126c0-1.165-0.659-1.873-1.37-2.223
				v-5.098C-127.598-83.704-127.154-83.787-126.799-83.787z M-128.033-88.668c0.926,2.81-1.735,4.591-4.1,4.591
				c-2.365,0-4.966-1.837-4.099-4.591c-0.232-0.737-0.502-2.329,0.537-4.291l1.999,2.001c0.242-0.078,2.883-0.078,3.125,0
				l2.001-2.001C-127.533-90.997-127.801-89.407-128.033-88.668z M-104.12-95.835l-5.203-10.074l3.909,18.937h-3.909v9.579
				c0,1.387-1.123,2.51-2.51,2.51c-1.385,0-2.507-1.124-2.507-2.51v-9.579h-1.124v9.562c0,1.385-1.123,2.508-2.51,2.508
				c-1.385,0-2.508-1.123-2.508-2.508v-9.562h-3.811l3.811-18.935l-5.215,10.074c-0.401,0.821-1.653,1.745-3.098,1.063
				c-1.146-0.56-1.626-1.938-1.066-3.085l3.772-7.771c2.056-4.251,3.441-7.168,7.534-7.168h7.295c4.093,0,5.478,2.917,7.534,7.168
				l3.772,7.771c0.118,0.239,0.188,0.488,0.217,0.737c-1.447,0.471-2.667,2.204-2.861,2.51
				C-103.321-94.801-103.878-95.337-104.12-95.835z M-100.44-90.308c0-0.416,1.522-3.716,1.493-3.716
				c-0.502,0-1.435,1.873-1.844,2.745c-0.215,0.462-0.638,0.821-1.02,0.821c-0.409,0-0.769-0.413-0.769-1.556
				c0-2.151,2.361-4.233,3.197-4.318c0.877-0.089,1.114,0.456,1.3,0.701c0.503-0.22,3.195-0.222,3.697-0.003
				c0.181-0.237,0.725-0.81,1.317-0.698c0.827,0.159,3.199,2.167,3.199,4.318c0,1.143-0.36,1.556-0.769,1.556
				c-0.382,0-0.805-0.358-1.022-0.821c-0.406-0.872-1.339-2.745-1.844-2.745c-0.031,0,1.493,3.325,1.493,3.716
				c0,0.817-0.715,3.869-4.212,3.869c-1.918,0-2.948-0.918-3.475-1.687C-100.283-88.975-100.44-89.897-100.44-90.308z
				 M-101.358-75.206c-0.268,0.29-2.457,0.428-2.457-1.129c0-1.382,1.382-1.503,1.382-1.503s-3.369-7.967,2.119-6.012v5.27
				C-102.388-77.385-101.571-75.545-101.358-75.206z M-93.157-75.011c-1.704,0-2.624-0.63-2.624-1.815c0-1.184,0-4.523,0-4.523
				c-0.019-0.167-0.104-0.408-0.44-0.408c-0.353,0-0.437,0.227-0.45,0.425c0,0,0,3.349,0,4.506s-0.92,1.815-2.624,1.815
				c-0.822,0-1.503-0.681-1.503-1.317c0-1.375,1.375-1.494,1.375-1.494v-8.805c2.919,1.952,5.659,0.549,6.394-0.002v8.807
				c0,0,1.377,0.119,1.377,1.496C-91.654-75.692-92.335-75.011-93.157-75.011z M-88.68-76.354c-0.242,1.899-2.228,1.211-2.441,1.123
				c0.212-0.336,1.008-2.175-1.037-3.356v-5.238c2.692-0.923,3.035,0.384,3.129,1.303c2.798,0.882,3.781-1.605,3.781-1.605
				c-0.215,3.574-3.736,4.695-4.286,4.849c-0.259,0.829-0.519,1.431-0.519,1.431S-88.503-77.717-88.68-76.354z"/>
		</g>
	</g>
</g>
</svg>
