<svg xmlns="http://www.w3.org/2000/svg" xmlns:xlink="http://www.w3.org/1999/xlink" version="1.1" height="453.64922968561586" width="445.14599609375" viewBox="0 0 445.14599609375 453.64922968561586"><g id="SvgjsG1011" rel="mainfill" name="main_text" xmlns:name="mainText_mainfill" fill="#ffffff" transform="translate(74.99999874830246,260.6246169408914)"><path d="M7.98 13.794 q-1.14 0 -2.166 0.437 t-1.786 1.197 t-1.197 1.786 t-0.437 2.166 l0 10.64 q0 1.14 0.437 2.166 t1.197 1.786 t1.786 1.197 t2.166 0.437 l5.32 0 q1.026 0 1.938 -0.342 t1.634 -0.95 t1.216 -1.425 t0.684 -1.805 l-0.532 0 q-0.38 1.71 -1.748 2.85 t-3.192 1.14 l-5.32 0 q-1.026 0 -1.957 -0.399 t-1.615 -1.083 t-1.083 -1.615 t-0.399 -1.957 l0 -10.64 q0 -1.026 0.399 -1.957 t1.083 -1.615 t1.615 -1.083 t1.957 -0.399 l5.32 0 q1.824 0 3.192 1.14 t1.748 2.85 l0.532 0 q-0.19 -0.95 -0.684 -1.786 t-1.216 -1.444 t-1.634 -0.95 t-1.938 -0.342 l-5.32 0 z M13.3 11.399999999999999 q1.634 0 3.097 0.627 t2.546 1.71 t1.71 2.546 t0.627 3.097 l0 1.33 l-5.32 0 l0 -1.33 q0 -1.102 -0.779 -1.881 t-1.881 -0.779 l-5.32 0 q-1.102 0 -1.881 0.779 t-0.779 1.881 l0 10.64 q0 1.102 0.779 1.881 t1.881 0.779 l5.32 0 q1.102 0 1.881 -0.779 t0.779 -1.881 l0 -1.33 l5.32 0 l0 1.33 q0 1.672 -0.627 3.116 t-1.71 2.527 t-2.546 1.71 t-3.097 0.627 l-5.32 0 q-1.672 0 -3.116 -0.627 t-2.527 -1.71 t-1.71 -2.527 t-0.627 -3.116 l0 -10.64 q0 -1.634 0.627 -3.097 t1.71 -2.546 t2.527 -1.71 t3.116 -0.627 l5.32 0 z M34.123999999999995 13.794 l-6.384 21.28 l-1.938 0 l0 0.532 l5.852 0 l0 -0.532 l-3.344 0 l2.242 -7.448 l11.78 0 l2.242 7.448 l-3.344 0 l0 0.532 l5.852 0 l0 -0.532 l-1.976 0 l-6.384 -21.28 l-4.598 0 z M34.542 14.326 l3.8 0 l3.838 12.768 l-11.476 0 z M46.891999999999996 32.68 l2.584 0 l0 5.32 l-10.64 0 l0 -5.32 l2.508 0 l-0.798 -2.66 l-8.208 0 l-0.798 2.66 l2.508 0 l0 5.32 l-10.64 0 l0 -5.32 l2.584 0 l6.384 -21.28 l8.132 0 z M38.949999999999996 24.7 l-2.394 -7.98 l-0.228 0 l-2.394 7.98 l5.016 0 z M73.112 11.399999999999999 l0 7.98 l-5.32 0 l0 -2.66 l-2.66 0 l0 15.96 l2.66 0 l0 5.32 l-10.64 0 l0 -5.32 l2.66 0 l0 -15.96 l-2.66 0 l0 2.66 l-5.32 0 l0 -7.98 l21.28 0 z M70.71799999999999 13.794 l-16.492 0 l0 3.192 l0.532 0 l0 -2.66 l7.448 0 l0 20.748 l-2.66 0 l0 0.532 l5.852 0 l0 -0.532 l-2.66 0 l0 -20.748 l7.448 0 l0 2.66 l0.532 0 l0 -3.192 z M85.84199999999998 22.116 q3.306 0.494 5.263 1.615 t2.983 2.432 t1.311 2.584 t0.285 2.071 q0 1.596 -0.665 2.964 t-1.824 2.356 t-2.736 1.558 t-3.439 0.57 q-1.938 0 -3.477 -0.399 t-2.755 -1.045 l0 1.178 l-5.32 0 l0 -7.98 l5.32 0 q0.684 0.76 1.349 1.311 t1.368 0.912 t1.558 0.532 t1.957 0.171 q1.444 0 2.394 -0.608 t0.95 -1.52 q0 -0.836 -0.494 -1.425 t-1.254 -0.988 t-1.71 -0.646 t-1.862 -0.399 q-3.192 -0.494 -5.13 -1.52 t-2.983 -2.242 t-1.387 -2.489 t-0.342 -2.261 q0 -1.634 0.665 -3.04 t1.843 -2.451 t2.736 -1.634 t3.382 -0.589 q1.938 0 3.382 0.361 t2.622 1.007 l0 -1.102 l5.32 0 l0 7.98 l-5.358 0 q-0.646 -0.722 -1.254 -1.273 t-1.292 -0.912 t-1.501 -0.551 t-1.919 -0.19 q-1.558 0 -2.432 0.76 t-0.874 1.634 q0 2.394 5.32 3.268 z M91.618 34.314 q0.57 -0.494 1.121 -1.349 t0.551 -2.147 q0 -0.722 -0.266 -1.653 t-1.102 -1.843 t-2.375 -1.691 t-4.085 -1.159 q-7.334 -1.14 -7.334 -5.624 q0 -0.874 0.38 -1.729 t1.121 -1.539 t1.805 -1.102 t2.394 -0.418 q2.432 0 4.028 0.76 t2.964 2.166 l1.938 0 l0 -3.192 l-0.532 0 l0 2.66 l-1.178 0 q-0.988 -1.064 -2.185 -1.71 t-2.451 -0.95 q-1.064 -0.266 -2.584 -0.266 q-1.33 0 -2.451 0.418 t-1.976 1.121 t-1.33 1.672 t-0.475 2.109 q0 1.558 0.722 2.622 t1.843 1.786 t2.508 1.121 t2.717 0.589 q2.394 0.38 3.857 1.083 t2.242 1.558 t1.026 1.71 t0.247 1.501 q0 0.988 -0.437 1.824 t-1.197 1.425 t-1.805 0.931 t-2.299 0.342 q-2.546 0 -4.18 -0.76 t-3.078 -2.166 l-1.9 0 l0 3.192 l0.532 0 l0 -2.66 l1.216 0 q0.76 0.798 1.539 1.349 t1.672 0.893 t1.919 0.513 t2.28 0.171 q1.368 0 2.546 -0.399 t2.052 -1.159 z  M121.59999999999998 13.794 l-6.384 21.28 l-1.938 0 l0 0.532 l5.852 0 l0 -0.532 l-3.344 0 l2.242 -7.448 l11.78 0 l2.242 7.448 l-3.344 0 l0 0.532 l5.852 0 l0 -0.532 l-1.976 0 l-6.384 -21.28 l-4.598 0 z M122.01799999999999 14.326 l3.8 0 l3.838 12.768 l-11.476 0 z M134.368 32.68 l2.584 0 l0 5.32 l-10.64 0 l0 -5.32 l2.508 0 l-0.798 -2.66 l-8.208 0 l-0.798 2.66 l2.508 0 l0 5.32 l-10.64 0 l0 -5.32 l2.584 0 l6.384 -21.28 l8.132 0 z M126.42599999999999 24.7 l-2.394 -7.98 l-0.228 0 l-2.394 7.98 l5.016 0 z M165.642 11.399999999999999 l0 5.32 l-2.66 0 l0 21.28 l-5.32 0 l-10.374 -16.568 l0 11.248 l2.66 0 l0 5.32 l-10.64 0 l0 -5.32 l2.66 0 l0 -15.96 l-2.66 0 l0 -5.32 l7.98 0 l10.374 16.568 l0 -11.248 l-2.66 0 l0 -5.32 l10.64 0 z M163.248 13.794 l-5.852 0 l0 0.532 l2.66 0 l0 20.748 l-0.76 0 l-13.338 -21.28 l-4.256 0 l0 0.532 l2.66 0 l0 20.748 l-2.66 0 l0 0.532 l5.852 0 l0 -0.532 l-2.66 0 l0 -20.748 l0.76 0 l13.338 21.28 l1.596 0 l0 -21.28 l2.66 0 l0 -0.532 z M178.676 14.326 q1.596 0 3.002 0.608 t2.451 1.653 t1.653 2.451 t0.608 3.002 l0 5.32 q0 1.596 -0.608 3.002 t-1.653 2.451 t-2.451 1.653 t-3.002 0.608 l-5.054 0 l0 -20.748 l5.054 0 z M183.996 22.04 q0 -1.102 -0.418 -2.071 t-1.14 -1.691 t-1.691 -1.14 t-2.071 -0.418 l-2.66 0 l0 15.96 l2.66 0 q1.102 0 2.071 -0.418 t1.691 -1.14 t1.14 -1.691 t0.418 -2.071 l0 -5.32 z M178.676 11.399999999999999 q2.204 0 4.142 0.836 t3.382 2.28 t2.28 3.382 t0.836 4.142 l0 5.32 q0 2.204 -0.836 4.142 t-2.28 3.382 t-3.382 2.28 t-4.142 0.836 l-10.64 0 l0 -5.32 l2.66 0 l0 -15.96 l-2.66 0 l0 -5.32 l10.64 0 z M186.922 22.04 q0 -1.71 -0.646 -3.211 t-1.767 -2.622 t-2.622 -1.767 t-3.211 -0.646 l-8.246 0 l0 0.532 l2.66 0 l0 20.748 l-2.66 0 l0 0.532 l8.246 0 q1.71 0 3.211 -0.646 t2.622 -1.767 t1.767 -2.622 t0.646 -3.211 l0 -5.32 z  M215.118 14.326 q1.596 0 3.002 0.608 t2.451 1.653 t1.653 2.451 t0.608 3.002 l0 5.32 q0 1.596 -0.608 3.002 t-1.653 2.451 t-2.451 1.653 t-3.002 0.608 l-5.054 0 l0 -20.748 l5.054 0 z M220.438 22.04 q0 -1.102 -0.418 -2.071 t-1.14 -1.691 t-1.691 -1.14 t-2.071 -0.418 l-2.66 0 l0 15.96 l2.66 0 q1.102 0 2.071 -0.418 t1.691 -1.14 t1.14 -1.691 t0.418 -2.071 l0 -5.32 z M215.118 11.399999999999999 q2.204 0 4.142 0.836 t3.382 2.28 t2.28 3.382 t0.836 4.142 l0 5.32 q0 2.204 -0.836 4.142 t-2.28 3.382 t-3.382 2.28 t-4.142 0.836 l-10.64 0 l0 -5.32 l2.66 0 l0 -15.96 l-2.66 0 l0 -5.32 l10.64 0 z M223.36399999999998 22.04 q0 -1.71 -0.646 -3.211 t-1.767 -2.622 t-2.622 -1.767 t-3.211 -0.646 l-8.246 0 l0 0.532 l2.66 0 l0 20.748 l-2.66 0 l0 0.532 l8.246 0 q1.71 0 3.211 -0.646 t2.622 -1.767 t1.767 -2.622 t0.646 -3.211 l0 -5.32 z M235.86599999999996 13.794 q-1.14 0 -2.166 0.437 t-1.786 1.197 t-1.197 1.786 t-0.437 2.166 l0 10.64 q0 1.14 0.437 2.166 t1.197 1.786 t1.786 1.197 t2.166 0.437 l5.32 0 q1.14 0 2.166 -0.437 t1.786 -1.197 t1.197 -1.786 t0.437 -2.166 l0 -10.64 q0 -1.14 -0.437 -2.166 t-1.197 -1.786 t-1.786 -1.197 t-2.166 -0.437 l-5.32 0 z M235.86599999999996 35.074 q-1.026 0 -1.957 -0.399 t-1.615 -1.083 t-1.083 -1.615 t-0.399 -1.957 l0 -10.64 q0 -1.026 0.399 -1.957 t1.083 -1.615 t1.615 -1.083 t1.957 -0.399 l5.32 0 q1.026 0 1.957 0.399 t1.615 1.083 t1.083 1.615 t0.399 1.957 l0 10.64 q0 1.026 -0.399 1.957 t-1.083 1.615 t-1.615 1.083 t-1.957 0.399 l-5.32 0 z M241.18599999999998 11.399999999999999 q1.634 0 3.097 0.627 t2.546 1.71 t1.71 2.546 t0.627 3.097 l0 10.64 q0 1.672 -0.627 3.116 t-1.71 2.527 t-2.546 1.71 t-3.097 0.627 l-5.32 0 q-1.672 0 -3.116 -0.627 t-2.527 -1.71 t-1.71 -2.527 t-0.627 -3.116 l0 -10.64 q0 -1.634 0.627 -3.097 t1.71 -2.546 t2.527 -1.71 t3.116 -0.627 l5.32 0 z M241.18599999999998 32.68 q1.102 0 1.881 -0.779 t0.779 -1.881 l0 -10.64 q0 -1.102 -0.779 -1.881 t-1.881 -0.779 l-5.32 0 q-1.102 0 -1.881 0.779 t-0.779 1.881 l0 10.64 q0 1.102 0.779 1.881 t1.881 0.779 l5.32 0 z M267.48199999999997 20.71 l0 -1.33 q0 -1.102 -0.779 -1.881 t-1.881 -0.779 l-5.32 0 q-1.102 0 -1.881 0.779 t-0.779 1.881 l0 10.64 q0 1.102 0.779 1.881 t1.881 0.779 l5.32 0 q1.102 0 1.881 -0.779 t0.779 -1.881 l0 -1.064 l-5.32 0 l0 -5.32 l10.64 0 l0 6.384 q0 1.672 -0.627 3.116 t-1.71 2.527 t-2.546 1.71 t-3.097 0.627 l-5.32 0 q-1.672 0 -3.116 -0.627 t-2.527 -1.71 t-1.71 -2.527 t-0.627 -3.116 l0 -10.64 q0 -1.634 0.627 -3.097 t1.71 -2.546 t2.527 -1.71 t3.116 -0.627 l5.32 0 q1.634 0 3.097 0.627 t2.546 1.71 t1.71 2.546 t0.627 3.097 l0 1.33 l-5.32 0 z M264.82199999999995 14.326 q1.824 0 3.192 1.14 t1.748 2.85 l0.532 0 q-0.19 -0.95 -0.684 -1.786 t-1.216 -1.444 t-1.634 -0.95 t-1.938 -0.342 l-5.32 0 q-1.14 0 -2.166 0.437 t-1.786 1.197 t-1.197 1.786 t-0.437 2.166 l0 10.64 q0 1.14 0.437 2.166 t1.197 1.786 t1.786 1.197 t2.166 0.437 l5.32 0 q1.14 0 2.166 -0.437 t1.786 -1.197 t1.197 -1.786 t0.437 -2.166 l0 -3.99 l-5.852 0 l0 0.532 l5.32 0 l0 3.458 q0 1.026 -0.399 1.957 t-1.083 1.615 t-1.615 1.083 t-1.957 0.399 l-5.32 0 q-1.026 0 -1.957 -0.399 t-1.615 -1.083 t-1.083 -1.615 t-0.399 -1.957 l0 -10.64 q0 -1.026 0.399 -1.957 t1.083 -1.615 t1.615 -1.083 t1.957 -0.399 l5.32 0 z M285.304 22.116 q3.306 0.494 5.263 1.615 t2.983 2.432 t1.311 2.584 t0.285 2.071 q0 1.596 -0.665 2.964 t-1.824 2.356 t-2.736 1.558 t-3.439 0.57 q-1.938 0 -3.477 -0.399 t-2.755 -1.045 l0 1.178 l-5.32 0 l0 -7.98 l5.32 0 q0.684 0.76 1.349 1.311 t1.368 0.912 t1.558 0.532 t1.957 0.171 q1.444 0 2.394 -0.608 t0.95 -1.52 q0 -0.836 -0.494 -1.425 t-1.254 -0.988 t-1.71 -0.646 t-1.862 -0.399 q-3.192 -0.494 -5.13 -1.52 t-2.983 -2.242 t-1.387 -2.489 t-0.342 -2.261 q0 -1.634 0.665 -3.04 t1.843 -2.451 t2.736 -1.634 t3.382 -0.589 q1.938 0 3.382 0.361 t2.622 1.007 l0 -1.102 l5.32 0 l0 7.98 l-5.358 0 q-0.646 -0.722 -1.254 -1.273 t-1.292 -0.912 t-1.501 -0.551 t-1.919 -0.19 q-1.558 0 -2.432 0.76 t-0.874 1.634 q0 2.394 5.32 3.268 z M291.0799999999999 34.314 q0.57 -0.494 1.121 -1.349 t0.551 -2.147 q0 -0.722 -0.266 -1.653 t-1.102 -1.843 t-2.375 -1.691 t-4.085 -1.159 q-7.334 -1.14 -7.334 -5.624 q0 -0.874 0.38 -1.729 t1.121 -1.539 t1.805 -1.102 t2.394 -0.418 q2.432 0 4.028 0.76 t2.964 2.166 l1.938 0 l0 -3.192 l-0.532 0 l0 2.66 l-1.178 0 q-0.988 -1.064 -2.185 -1.71 t-2.451 -0.95 q-1.064 -0.266 -2.584 -0.266 q-1.33 0 -2.451 0.418 t-1.976 1.121 t-1.33 1.672 t-0.475 2.109 q0 1.558 0.722 2.622 t1.843 1.786 t2.508 1.121 t2.717 0.589 q2.394 0.38 3.857 1.083 t2.242 1.558 t1.026 1.71 t0.247 1.501 q0 0.988 -0.437 1.824 t-1.197 1.425 t-1.805 0.931 t-2.299 0.342 q-2.546 0 -4.18 -0.76 t-3.078 -2.166 l-1.9 0 l0 3.192 l0.532 0 l0 -2.66 l1.216 0 q0.76 0.798 1.539 1.349 t1.672 0.893 t1.919 0.513 t2.28 0.171 q1.368 0 2.546 -0.399 t2.052 -1.159 z"></path></g><defs id="SvgjsDefs1010"></defs><g id="SvgjsG1012" rel="mainfill" name="symbol" xmlns:name="symbol_mainfill" fill="#ffffff" transform="translate(165.3306528690223,148.51812895539945) scale(1.1448327276211683)"><g xmlns="http://www.w3.org/2000/svg"><g><path d="M99.279,73.483c0,0-2.34,5.819-5.645,5.043c-0.611-1.892-2.14-3.836-6.747-2.562v-4.736    c0.013-0.018,0.026-0.035,0.038-0.052c0.841-1.181,1.285-2.439,1.496-3.431c0.256,0.073,3.783,0.732,3.783-4.228    c0-2.591-2.258-7.722-6.851-8.981c-1.181-0.176-2.358,0.419-2.956,0.908c-0.789-0.201-4.508-0.201-5.299,0.001    c-0.466-0.388-1.113-0.903-2.029-0.977c-0.071-0.566-0.234-1.13-0.498-1.67l-6.543-13.483c-4.77-10.472-8.438-13.424-15.42-13.092    c3.693-2.13,5.887-5.52,5.887-9.751c0-6.087-4.936-11.021-11.021-11.021c-6.087,0-11.021,4.934-11.021,11.021    c0,4.231,2.586,8.032,5.886,9.751c-6.742-0.28-10.594,2.62-15.362,13.092L20.433,52.8c-1.296,2.658-0.246,6.101,2.868,7.342    l-3.501,3.502c-0.655-0.065-3.411-0.065-4.066,0l-4.355-4.354c0,0-2.664,3.646-2.511,7.948c-0.125-0.404-1.402-4.534-5.971-5.018    c-1.247-0.103-2.703,0.827-2.854,2.123c-0.419,3.586,2.439,3.444,2.86,4.262c0.209,0.405,0.24,1.368-0.688,3.589    c-3.92,9.309,2.111,12.358,3.315,12.856c0.291,0.793,0.604,1.532,0.881,2.145c-0.899,0.652-1.618,1.717-1.618,3.28    c0,1.875,1.401,3.814,3.748,3.814c0.664,0,1.201-0.197,1.612-0.48c0.689,0.459,1.519,0.738,2.392,0.738    c3.562,0,4.888-1.606,5.145-1.929c0.252,0.312,1.52,1.929,5.13,1.929c0.873,0,1.702-0.279,2.391-0.738    c0.412,0.283,0.949,0.48,1.613,0.48c2.346,0,3.748-1.939,3.748-3.814c0-1.563-0.719-2.627-1.618-3.28    c2.18-4.862,2.214-7.776,1.314-9.279c-0.382-0.638-1.774-2.448-5.547-1.341v-0.849c1.187-1.303,2.405-3.436,1.666-6.474    c1.082-4.537-1.59-8.746-1.59-8.746c2.63,0.27,4.586-1.492,5.32-2.982l4.442-8.582l-4.961,24.649h6.889v15.116    c0,3.156,2.567,5.725,5.723,5.725c2.387,0,4.438-1.47,5.295-3.551c0.85,2.099,2.909,3.583,5.309,3.583    c3.156,0,5.725-2.567,5.725-5.724V73.591h7.066l-5.041-24.42l4.324,8.353c0.518,1.051,1.645,2.236,3.186,2.749    c-2.416,6.931,1.926,8.046,3.012,7.478c0.244,2.134,1.496,3.441,1.547,3.511v4.704c-3.781-1.452-5.661,0.572-6.211,1.408    c-1.88,3.373,0.205,8.885,0.439,9.556c-1.006,0.663-1.841,1.794-1.841,3.507c0,2.099,1.989,3.939,4.257,3.939    c1.467,0,2.603-0.605,2.854-0.751c0.699,0.467,1.541,0.751,2.427,0.751c1.788,0,4.126-0.488,5.194-1.953    c1.033,1.465,3.418,1.953,5.211,1.953c0.885,0,1.727-0.284,2.426-0.751c0.252,0.146,1.387,0.751,2.854,0.751    c2.268,0,4.257-1.841,4.257-3.939c0-1.713-0.835-2.845-1.841-3.507c0.013-0.034,0.024-0.069,0.036-0.104    C103.215,83.467,99.279,73.483,99.279,73.483z M37.732,16.474c0-5.382,4.361-9.743,9.742-9.743c5.38,0,9.742,4.361,9.742,9.743    c0,5.381-4.362,9.742-9.742,9.742C42.094,26.216,37.732,21.854,37.732,16.474z M8.916,71.104c0.025,1.657,0.664,3.189,1.728,4.435    v1.036c-0.837-0.245-2.128-0.546-3.583-0.179C7.203,75.84,8.667,72.114,8.916,71.104z M8.951,92.744    c-0.107,0.032-2.466,0.266-2.466-2.104c0-2.255,2.255-2.45,2.255-2.45s-1.119-2.089-1.874-4.385    c-0.992-0.293-6.789-2.4-3.127-11.035c0.968-2.316,1.966-5.577-1.263-6.493c-0.697-0.196-1.087-0.938-0.879-1.63    c0.17-0.568,0.901-1.142,1.631-0.879c1.809,0.543,2.995,1.454,3.625,2.786c0.83,1.756,0.603,4.12-0.696,7.227    c-1.086,2.6-1.621,5.446,0.035,6.694c-0.055-3.762,3.589-2.445,4.514-2.132v8.692c-1.211,0.597-2.334,1.803-2.334,3.791    C8.372,91.512,8.587,92.168,8.951,92.744z M22.921,93.016c-2.91,0-4.479-1.123-4.479-3.097c0-0.85,0-2.39,0-3.871    c1.529-0.358,2.667-1.73,2.667-3.369c-0.192,1.729-1.68,2.688-3.461,2.688s-3.269-0.959-3.461-2.688    c0,1.663,1.171,3.051,2.734,3.384c0,1.47,0,2.996,0,3.856c0,2.021-1.57,3.097-4.479,3.097c-1.402,0-2.566-1.161-2.566-2.245    c0-2.349,2.348-2.554,2.348-2.554v-11.34c1.531,1.032,3.454,1.65,5.542,1.65c2.01,0,3.869-0.572,5.371-1.536v11.226    c0,0,2.347,0.205,2.347,2.554C25.486,91.854,24.323,93.016,22.921,93.016z M26.974,77.699c5.267,0-0.322,10.432-0.322,10.432    s2.284,0.197,2.284,2.481c0,2.446-2.389,2.163-2.498,2.131c0.369-0.583,0.587-1.248,0.587-1.942c0-2.013-1.137-3.234-2.363-3.84    v-8.803C25.597,77.842,26.36,77.699,26.974,77.699z M24.844,69.271c1.598,4.852-2.995,7.927-7.078,7.927    c-4.082,0-8.575-3.173-7.078-7.927c-0.401-1.273-0.865-4.019,0.926-7.406l3.453,3.454c0.418-0.137,4.979-0.137,5.397,0    l3.454-3.454C25.708,65.252,25.245,67.997,24.844,69.271z M66.131,56.897l-8.983-17.394l6.749,32.695h-6.749V88.74    c0,2.392-1.939,4.332-4.333,4.332c-2.392,0-4.331-1.94-4.331-4.332V72.199h-1.94v16.508c0,2.393-1.939,4.333-4.332,4.333    c-2.393,0-4.332-1.94-4.332-4.333V72.199h-6.58l6.58-32.695l-9.005,17.394c-0.692,1.417-2.853,3.013-5.347,1.836    c-1.98-0.967-2.809-3.345-1.843-5.326l6.513-13.419c3.549-7.339,5.941-12.376,13.009-12.376h12.593    c7.068,0,9.46,5.037,13.009,12.376l6.513,13.419c0.201,0.413,0.323,0.842,0.375,1.272c-2.501,0.813-4.607,3.807-4.939,4.334    C67.51,58.681,66.551,57.757,66.131,56.897z M72.486,66.44c0-0.719,2.627-6.414,2.578-6.414c-0.868,0-2.48,3.234-3.184,4.739    c-0.373,0.799-1.104,1.417-1.763,1.417c-0.708,0-1.329-0.714-1.329-2.688c0-3.714,4.076-7.307,5.521-7.453    c1.514-0.154,1.922,0.787,2.243,1.21c0.867-0.381,5.517-0.383,6.382-0.005c0.313-0.41,1.252-1.401,2.276-1.205    c1.427,0.272,5.521,3.739,5.521,7.453c0,1.974-0.621,2.688-1.328,2.688c-0.658,0-1.391-0.619-1.763-1.417    c-0.702-1.505-2.315-4.74-3.186-4.74c-0.054,0,2.577,5.742,2.577,6.415c0,1.411-1.234,6.681-7.273,6.681    c-3.309,0-5.088-1.584-6-2.912C72.756,68.743,72.486,67.15,72.486,66.44z M70.9,92.516c-0.463,0.5-4.242,0.739-4.242-1.949    c0-2.387,2.389-2.595,2.389-2.595s-5.819-13.758,3.656-10.382v9.099C69.123,88.753,70.532,91.93,70.9,92.516z M85.061,92.851    c-2.943,0-4.531-1.089-4.531-3.134c0-2.044,0-7.808,0-7.808c-0.031-0.287-0.18-0.705-0.761-0.705c-0.61,0-0.755,0.392-0.777,0.734    c0,0,0,5.781,0,7.778c0,1.998-1.589,3.134-4.53,3.134c-1.419,0-2.596-1.175-2.596-2.272c0-2.375,2.375-2.581,2.375-2.581V72.795    c5.041,3.371,9.769,0.949,11.04-0.004v15.206c0,0,2.376,0.206,2.376,2.581C87.656,91.676,86.479,92.851,85.061,92.851z     M92.791,90.534c-0.42,3.276-3.848,2.089-4.216,1.938c0.365-0.583,1.739-3.758-1.793-5.793v-9.046    c4.65-1.591,5.24,0.665,5.403,2.252c4.83,1.522,6.527-2.773,6.527-2.773c-0.369,6.171-6.451,8.107-7.396,8.37    c-0.449,1.434-0.898,2.473-0.898,2.473S93.094,88.18,92.791,90.534z"></path></g></g></g><g id="SvgjsG1013" transform="translate(0,0) scale(4.251633014625774)" rel="mainfill" name="outline_container" xmlns:name="outlineContainer_mainfill" fill="#ffffff"><path xmlns="http://www.w3.org/2000/svg" d="M54.7 106.7l-2.3-3.3-2.4 3.3-2-3.5-2.6 3.1-1.7-3.7-2.9 2.9-1.4-3.9-3.1 2.6-1-4-3.4 2.3-.7-4-3.5 2-.3-4.1-3.7 1.6v-4.2l-3.8 1.3.4-4.1-3.9.9.7-4-4 .6 1.1-4-4 .2 1.4-3.8-4-.2L9.2 77l-4-.5L7.3 73l-3.9-.9 2.4-3.3-3.9-1.3 2.7-3.1-3.8-1.5 3-2.9-3.6-1.9 3.2-2.5L0 53.3l3.4-2.2-3.2-2.6 3.6-1.9-3-2.8 3.7-1.6-2.6-3.1 3.8-1.2-2.4-3.3 3.9-.9-2-3.5 4-.5-1.8-3.8 4-.2-1.4-3.8 4 .2-1.1-4 4 .6-.7-4 3.9.9-.4-4.1 3.8 1.3v-4l3.7 1.6.3-4.1 3.5 2 .7-4 3.4 2.3 1-4 3.1 2.6 1.4-3.9 2.9 2.9L45.3.4l2.6 3.1L50 0l2.3 3.3L54.7 0l2 3.5L59.4.4l1.7 3.7L64 1.3l1.4 3.9 3.1-2.6 1 4 3.4-2.3.7 4 3.5-2 .3 4.1 3.7-1.6v4.1l3.9-1.3-.4 4.1 3.9-.9-.7 4 4-.6-1.1 4 4-.2-1.4 3.8 4 .2-1.8 3.7 4 .5-2.1 3.5 3.9.9-2.3 3.3 3.8 1.2-2.7 3.1 3.7 1.6-2.9 2.8 3.6 1.9-3.2 2.5 3.4 2.2-3.4 2.2 3.2 2.5-3.6 2.1 2.9 2.8-3.7 1.6 2.7 3.1-3.8 1.3 2.4 3.3-3.9.9 2.1 3.5-4 .5 1.8 3.7-4 .2 1.4 3.8-4-.2 1.1 4-4-.6.7 4-4-.9.4 4.1-3.8-1.3v4.1l-3.7-1.6-.3 4.1-3.5-2-.7 4-3.3-2.3-1.1 4-3.1-2.6-1.5 3.9-2.9-2.9-1.7 3.7-2.6-3.1zm-2.3-4.8l2.3 3.2 2-3.4 2.6 3 1.7-3.6 2.8 2.8 1.4-3.7 3 2.5 1-3.9 3.3 2.2.7-3.9 3.2 1.9.3-4 3.6 1.6v-4l3.7 1.3-.4-4 3.8.9-.7-3.9 3.9.6-1.1-3.8 3.9.2-1.4-3.7 3.9-.2-1.7-3.6 3.9-.5-2-3.4 3.8-.9-2.3-3.2 3.7-1.2-2.6-3 3.6-1.5-2.8-2.7 3.5-2-3.1-2.5 3.3-2.2-3.3-2.2 3.1-2.5-3.5-1.9 2.8-2.7-3.6-1.5 2.6-3-3.7-1.2 2.3-3.2-3.8-.9 2-3.4-3.9-.5 1.8-3.6-3.9-.2 1.4-3.7-3.9.2 1.1-3.8-3.9.6.7-3.9-3.8.9.4-4-3.8 1.2v-4l-3.6 1.6-.3-4-3.4 2-.7-3.9-3.2 2.2-1-3.9L65 6.5l-1.3-3.7-2.9 2.8L59.2 2l-2.6 3-2-3.4-2.3 3.2-2.2-3.3-2 3.5-2.6-3-1.7 3.6L41 2.8l-1.3 3.7L36.6 4l-1 3.8-3.2-2.2-.7 3.9-3.4-1.8-.3 4-3.6-1.6v4l-3.7-1.3.4 4-3.8-.9.7 3.9-3.9-.6 1.1 3.8-3.9-.2 1.4 3.7-3.9.2 1.7 3.6-3.9.5 2 3.4-3.8.9 2.3 3.2-3.8 1.2 2.6 3-3.6 1.6 2.8 2.7-3.4 1.9 3.1 2.5-3.3 2.1 3.3 2.2L1.7 58l3.5 1.9-2.9 2.7 3.6 1.5-2.6 3L7 68.3l-2.3 3.2 3.8.9-2 3.4 3.9.5-1.7 3.6 3.9.2-1.4 3.7 3.9-.2-1.1 3.8 3.9-.6-.7 3.9 3.8-.9-.4 4 3.7-1.3v4l3.6-1.5.3 4 3.4-1.9.7 3.9 3.3-2.2 1 3.9 3-2.5 1.4 3.7 2.8-2.8 1.7 3.6 2.6-3 2 3.4z" fill=""></path></g></svg>