<?xml version="1.0" encoding="utf-8"?>
<!-- Generator: Adobe Illustrator 15.1.0, SVG Export Plug-In . SVG Version: 6.00 Build 0)  -->
<!DOCTYPE svg PUBLIC "-//W3C//DTD SVG 1.1//EN" "http://www.w3.org/Graphics/SVG/1.1/DTD/svg11.dtd">
<svg version="1.1" id="Layer_1" xmlns="http://www.w3.org/2000/svg" xmlns:xlink="http://www.w3.org/1999/xlink" x="0px" y="0px"
	 width="297.64px" height="144.57px" viewBox="0 0 297.64 144.57" enable-background="new 0 0 297.64 144.57" xml:space="preserve">
<g id="SvgjsG1011" transform="translate(74.99999874830246,260.6246169408914)" xmlns:name="mainText_mainfill">
	<path fill="#FFFFFF" d="M-65.093-140.531c-0.76,0-1.482,0.146-2.166,0.438c-0.685,0.291-1.279,0.689-1.786,1.197
		c-0.507,0.506-0.905,1.102-1.197,1.785c-0.291,0.684-0.437,1.406-0.437,2.166v10.641c0,0.76,0.146,1.481,0.437,2.166
		c0.292,0.684,0.69,1.279,1.197,1.785c0.507,0.508,1.102,0.906,1.786,1.197c0.684,0.291,1.406,0.438,2.166,0.438h5.319
		c0.685,0,1.33-0.114,1.938-0.342c0.608-0.229,1.152-0.545,1.634-0.951c0.481-0.404,0.887-0.88,1.216-1.424
		c0.33-0.545,0.558-1.146,0.685-1.806h-0.532c-0.253,1.14-0.836,2.091-1.748,2.851s-1.976,1.14-3.192,1.14h-5.319
		c-0.685,0-1.337-0.134-1.957-0.399c-0.621-0.266-1.159-0.627-1.615-1.082c-0.456-0.457-0.817-0.995-1.083-1.615
		c-0.266-0.621-0.399-1.273-0.399-1.957v-10.641c0-0.684,0.134-1.336,0.399-1.957s0.627-1.158,1.083-1.615
		c0.456-0.455,0.994-0.816,1.615-1.082c0.62-0.267,1.272-0.399,1.957-0.399h5.319c1.217,0,2.28,0.38,3.192,1.14
		s1.495,1.711,1.748,2.85h0.532c-0.127-0.633-0.354-1.229-0.685-1.785c-0.329-0.558-0.734-1.039-1.216-1.444
		s-1.025-0.722-1.634-0.95c-0.608-0.228-1.254-0.342-1.938-0.342H-65.093z M-59.773-142.925c1.09,0,2.122,0.209,3.098,0.627
		c0.976,0.419,1.824,0.988,2.546,1.711c0.722,0.722,1.292,1.57,1.71,2.546s0.627,2.007,0.627,3.097v1.33h-5.32v-1.33
		c0-0.734-0.26-1.361-0.778-1.881c-0.52-0.52-1.146-0.779-1.882-0.779h-5.319c-0.735,0-1.362,0.26-1.881,0.779
		c-0.52,0.52-0.779,1.146-0.779,1.881v10.641c0,0.734,0.26,1.361,0.779,1.881c0.519,0.52,1.146,0.779,1.881,0.779h5.319
		c0.735,0,1.362-0.26,1.882-0.779c0.519-0.52,0.778-1.146,0.778-1.881v-1.33h5.32v1.33c0,1.114-0.209,2.152-0.627,3.115
		s-0.988,1.805-1.71,2.527s-1.57,1.292-2.546,1.71s-2.008,0.627-3.098,0.627h-5.319c-1.115,0-2.153-0.209-3.116-0.627
		s-1.805-0.987-2.527-1.71c-0.722-0.723-1.292-1.564-1.71-2.527s-0.627-2.001-0.627-3.115v-10.641c0-1.09,0.209-2.121,0.627-3.097
		s0.988-1.824,1.71-2.546c0.723-0.723,1.564-1.292,2.527-1.711c0.963-0.418,2.001-0.627,3.116-0.627H-59.773z M-38.949-140.531
		l-6.384,21.28h-1.938v0.532h5.852v-0.532h-3.344l2.242-7.448h11.779l2.242,7.448h-3.344v0.532h5.852v-0.532h-1.976l-6.384-21.28
		H-38.949L-38.949-140.531z M-38.531-139.999h3.8l3.839,12.769h-11.477L-38.531-139.999z M-26.181-121.644h2.584v5.319h-10.641
		v-5.319h2.509l-0.799-2.66h-8.208l-0.798,2.66h2.508v5.319h-10.64v-5.319h2.584l6.384-21.281h8.132L-26.181-121.644z
		 M-34.123-129.625l-2.394-7.98h-0.229l-2.394,7.98H-34.123z M0.039-142.925v7.98h-5.32v-2.66h-2.66v15.961h2.66v5.319h-10.64
		v-5.319h2.66v-15.961h-2.66v2.66h-5.32v-7.98H0.039z M-2.354-140.531h-16.492v3.192h0.531v-2.66h7.448v20.748h-2.66v0.532h5.853
		v-0.532h-2.66v-20.748h7.448v2.66h0.532V-140.531z M12.769-132.209c2.204,0.329,3.959,0.867,5.264,1.615
		c1.305,0.747,2.299,1.558,2.982,2.432c0.685,0.874,1.121,1.735,1.312,2.584c0.189,0.849,0.285,1.539,0.285,2.07
		c0,1.064-0.222,2.053-0.665,2.965s-1.052,1.697-1.824,2.355c-0.772,0.659-1.685,1.178-2.736,1.559
		c-1.051,0.38-2.197,0.57-3.438,0.57c-1.292,0-2.451-0.133-3.478-0.399c-1.025-0.267-1.944-0.614-2.755-1.045v1.178H2.396v-7.979
		h5.319c0.456,0.506,0.906,0.943,1.35,1.311s0.898,0.672,1.367,0.912s0.988,0.418,1.559,0.531c0.569,0.115,1.222,0.172,1.957,0.172
		c0.963,0,1.761-0.203,2.394-0.607c0.634-0.406,0.95-0.912,0.95-1.521c0-0.557-0.165-1.031-0.494-1.424s-0.747-0.723-1.254-0.988
		s-1.076-0.481-1.71-0.646c-0.634-0.164-1.254-0.297-1.862-0.398c-2.128-0.33-3.838-0.836-5.13-1.52
		c-1.292-0.685-2.286-1.432-2.982-2.242c-0.697-0.811-1.159-1.641-1.388-2.49c-0.228-0.848-0.342-1.602-0.342-2.26
		c0-1.09,0.222-2.104,0.665-3.041s1.058-1.754,1.843-2.451c0.785-0.695,1.697-1.24,2.736-1.633s2.166-0.59,3.382-0.59
		c1.292,0,2.42,0.121,3.382,0.361c0.963,0.24,1.837,0.576,2.622,1.007v-1.103h5.32v7.98h-5.358c-0.431-0.48-0.849-0.905-1.254-1.273
		c-0.405-0.367-0.836-0.67-1.292-0.911s-0.956-0.425-1.501-0.552c-0.545-0.126-1.185-0.189-1.919-0.189
		c-1.038,0-1.85,0.254-2.432,0.76c-0.583,0.507-0.874,1.052-0.874,1.635C7.449-133.88,9.223-132.791,12.769-132.209L12.769-132.209z
		 M18.545-120.011c0.38-0.328,0.754-0.778,1.121-1.348c0.367-0.57,0.551-1.287,0.551-2.148c0-0.48-0.089-1.031-0.266-1.652
		c-0.178-0.621-0.545-1.234-1.103-1.843c-0.557-0.608-1.349-1.172-2.375-1.69c-1.025-0.52-2.388-0.906-4.085-1.16
		c-4.889-0.76-7.334-2.635-7.334-5.623c0-0.583,0.127-1.16,0.38-1.729c0.254-0.569,0.628-1.083,1.121-1.539
		c0.494-0.456,1.096-0.823,1.806-1.103c0.709-0.277,1.507-0.418,2.394-0.418c1.621,0,2.964,0.254,4.028,0.761
		c1.063,0.507,2.052,1.229,2.964,2.166h1.938v-3.192h-0.531v2.66h-1.179c-0.658-0.709-1.387-1.279-2.185-1.71
		s-1.615-0.747-2.451-0.95c-0.709-0.178-1.57-0.266-2.584-0.266c-0.887,0-1.703,0.139-2.451,0.418
		c-0.747,0.278-1.405,0.652-1.976,1.121s-1.014,1.025-1.33,1.672s-0.475,1.35-0.475,2.109c0,1.038,0.24,1.912,0.722,2.621
		s1.096,1.305,1.843,1.787c0.747,0.48,1.583,0.854,2.508,1.12c0.925,0.267,1.831,0.462,2.718,0.589
		c1.596,0.254,2.881,0.615,3.856,1.084s1.723,0.987,2.242,1.557c0.52,0.57,0.861,1.141,1.026,1.711c0.164,0.57,0.246,1.07,0.246,1.5
		c0,0.66-0.146,1.268-0.437,1.824c-0.291,0.559-0.69,1.033-1.197,1.426s-1.108,0.703-1.805,0.931s-1.463,0.343-2.299,0.343
		c-1.697,0-3.091-0.254-4.181-0.761c-1.089-0.507-2.115-1.229-3.077-2.166h-1.9v3.192h0.532v-2.66h1.216
		c0.507,0.531,1.02,0.981,1.539,1.349c0.52,0.368,1.076,0.665,1.672,0.894c0.596,0.228,1.235,0.398,1.919,0.513
		s1.444,0.171,2.28,0.171c0.912,0,1.761-0.133,2.546-0.398C17.278-119.118,17.962-119.504,18.545-120.011L18.545-120.011z
		 M48.527-140.531l-6.385,21.28h-1.938v0.532h5.852v-0.532h-3.344l2.242-7.448h11.78l2.241,7.448h-3.344v0.532h5.853v-0.532h-1.977
		l-6.384-21.28H48.527z M48.945-139.999h3.8l3.838,12.769H45.107L48.945-139.999z M61.295-121.644h2.584v5.319h-10.64v-5.319h2.508
		l-0.798-2.66h-8.208l-0.798,2.66h2.508v5.319H37.811v-5.319h2.584l6.385-21.281h8.132L61.295-121.644z M53.353-129.625l-2.394-7.98
		h-0.228l-2.395,7.98H53.353L53.353-129.625z M92.569-142.925v5.32h-2.66v21.28h-5.32l-10.374-16.567v11.248h2.66v5.319h-10.64
		v-5.319h2.66v-15.961h-2.66v-5.32h7.979l10.374,16.568v-11.248h-2.66v-5.32H92.569L92.569-142.925z M90.175-140.531h-5.852v0.532
		h2.66v20.748h-0.761l-13.338-21.28h-4.256v0.532h2.66v20.748h-2.66v0.532h5.853v-0.532h-2.66v-20.748h0.76l13.338,21.28h1.596
		v-21.28h2.66V-140.531z M105.603-139.999c1.064,0,2.065,0.202,3.003,0.608c0.937,0.404,1.754,0.956,2.45,1.652
		c0.697,0.697,1.248,1.514,1.653,2.451s0.608,1.938,0.608,3.002v5.32c0,1.064-0.203,2.064-0.608,3.002s-0.956,1.754-1.653,2.451
		c-0.696,0.696-1.514,1.248-2.45,1.652c-0.938,0.406-1.938,0.608-3.003,0.608h-5.054v-20.748H105.603z M110.923-132.285
		c0-0.734-0.139-1.425-0.418-2.07c-0.278-0.646-0.658-1.211-1.14-1.691c-0.481-0.481-1.045-0.861-1.691-1.141
		c-0.646-0.278-1.336-0.418-2.07-0.418h-2.66v15.961h2.66c0.734,0,1.425-0.141,2.07-0.418c0.646-0.279,1.21-0.659,1.691-1.141
		s0.861-1.045,1.14-1.691c0.279-0.646,0.418-1.336,0.418-2.07V-132.285z M105.603-142.925c1.47,0,2.851,0.279,4.143,0.837
		s2.419,1.317,3.382,2.28s1.723,2.09,2.28,3.381c0.558,1.293,0.836,2.674,0.836,4.143v5.32c0,1.469-0.278,2.85-0.836,4.142
		s-1.317,2.419-2.28,3.382s-2.09,1.723-3.382,2.28s-2.673,0.836-4.143,0.836h-10.64v-5.319h2.66v-15.961h-2.66v-5.32H105.603z
		 M113.849-132.285c0-1.141-0.215-2.211-0.646-3.211s-1.02-1.875-1.768-2.622c-0.747-0.747-1.621-1.337-2.621-1.767
		c-1.001-0.432-2.071-0.646-3.211-0.646h-8.246v0.532h2.659v20.748h-2.659v0.532h8.246c1.14,0,2.21-0.216,3.211-0.646
		c1-0.431,1.874-1.02,2.621-1.768c0.748-0.746,1.337-1.621,1.768-2.621c0.431-1.001,0.646-2.071,0.646-3.211V-132.285z
		 M142.045-139.999c1.064,0,2.064,0.202,3.002,0.608c0.938,0.404,1.755,0.956,2.451,1.652c0.696,0.697,1.248,1.514,1.653,2.451
		s0.607,1.938,0.607,3.002v5.32c0,1.064-0.202,2.064-0.607,3.002s-0.957,1.754-1.653,2.451c-0.696,0.696-1.514,1.248-2.451,1.652
		c-0.938,0.406-1.938,0.608-3.002,0.608h-5.054v-20.748H142.045z M147.365-132.285c0-0.734-0.14-1.425-0.418-2.07
		c-0.279-0.646-0.659-1.211-1.141-1.691c-0.48-0.481-1.045-0.861-1.69-1.141c-0.646-0.278-1.337-0.418-2.071-0.418h-2.66v15.961
		h2.66c0.734,0,1.425-0.141,2.071-0.418c0.646-0.279,1.21-0.659,1.69-1.141c0.481-0.481,0.861-1.045,1.141-1.691
		c0.278-0.646,0.418-1.336,0.418-2.07V-132.285z M142.045-142.925c1.47,0,2.851,0.279,4.143,0.837s2.419,1.317,3.382,2.28
		s1.723,2.09,2.28,3.381c0.557,1.293,0.836,2.674,0.836,4.143v5.32c0,1.469-0.279,2.85-0.836,4.142
		c-0.558,1.292-1.317,2.419-2.28,3.382s-2.09,1.723-3.382,2.28s-2.673,0.836-4.143,0.836h-10.64v-5.319h2.66v-15.961h-2.66v-5.32
		H142.045z M150.291-132.285c0-1.141-0.215-2.211-0.646-3.211s-1.021-1.875-1.768-2.622s-1.621-1.337-2.622-1.767
		c-1-0.432-2.071-0.646-3.211-0.646h-8.246v0.532h2.66v20.748h-2.66v0.532h8.246c1.14,0,2.211-0.216,3.211-0.646
		c1.001-0.431,1.875-1.02,2.622-1.768c0.747-0.746,1.337-1.621,1.768-2.621c0.431-1.001,0.646-2.071,0.646-3.211V-132.285z
		 M162.793-140.531c-0.76,0-1.481,0.146-2.166,0.438c-0.684,0.291-1.279,0.689-1.786,1.197c-0.506,0.506-0.905,1.102-1.196,1.785
		c-0.292,0.684-0.438,1.406-0.438,2.166v10.641c0,0.76,0.146,1.481,0.438,2.166c0.291,0.684,0.69,1.279,1.196,1.785
		c0.507,0.508,1.103,0.906,1.786,1.197c0.685,0.291,1.406,0.438,2.166,0.438h5.32c0.76,0,1.482-0.146,2.166-0.438
		s1.279-0.689,1.786-1.197c0.507-0.506,0.905-1.102,1.197-1.785c0.291-0.685,0.437-1.406,0.437-2.166v-10.641
		c0-0.76-0.146-1.482-0.437-2.166c-0.292-0.684-0.69-1.279-1.197-1.785c-0.507-0.508-1.103-0.906-1.786-1.197
		s-1.406-0.438-2.166-0.438H162.793z M162.793-119.251c-0.684,0-1.336-0.134-1.957-0.399c-0.62-0.266-1.158-0.627-1.614-1.082
		c-0.456-0.457-0.817-0.995-1.083-1.615c-0.267-0.621-0.399-1.273-0.399-1.957v-10.641c0-0.684,0.133-1.336,0.399-1.957
		c0.266-0.621,0.627-1.158,1.083-1.615c0.456-0.455,0.994-0.816,1.614-1.082c0.621-0.267,1.273-0.399,1.957-0.399h5.32
		c0.684,0,1.336,0.133,1.957,0.399c0.621,0.266,1.159,0.627,1.615,1.082c0.456,0.457,0.816,0.994,1.083,1.615
		c0.266,0.621,0.398,1.273,0.398,1.957v10.641c0,0.684-0.133,1.336-0.398,1.957c-0.267,0.62-0.627,1.158-1.083,1.615
		c-0.456,0.455-0.994,0.816-1.615,1.082s-1.273,0.399-1.957,0.399H162.793z M168.113-142.925c1.089,0,2.122,0.209,3.097,0.627
		c0.976,0.419,1.824,0.988,2.546,1.711c0.723,0.722,1.292,1.57,1.71,2.546c0.419,0.976,0.628,2.007,0.628,3.097v10.641
		c0,1.114-0.209,2.152-0.628,3.115c-0.418,0.963-0.987,1.805-1.71,2.527c-0.722,0.723-1.57,1.292-2.546,1.71
		c-0.975,0.418-2.008,0.627-3.097,0.627h-5.32c-1.114,0-2.153-0.209-3.115-0.627c-0.963-0.418-1.806-0.987-2.527-1.71
		s-1.292-1.564-1.71-2.527s-0.627-2.001-0.627-3.115v-10.641c0-1.09,0.209-2.121,0.627-3.097s0.987-1.824,1.71-2.546
		c0.722-0.723,1.564-1.292,2.527-1.711c0.962-0.418,2.001-0.627,3.115-0.627H168.113z M168.113-121.644
		c0.734,0,1.361-0.26,1.881-0.779s0.779-1.146,0.779-1.881v-10.641c0-0.734-0.26-1.361-0.779-1.881s-1.146-0.779-1.881-0.779h-5.32
		c-0.734,0-1.361,0.26-1.881,0.779s-0.779,1.146-0.779,1.881v10.641c0,0.734,0.26,1.361,0.779,1.881s1.146,0.779,1.881,0.779
		H168.113z M194.409-133.615v-1.33c0-0.734-0.26-1.361-0.779-1.881c-0.519-0.52-1.146-0.779-1.881-0.779h-5.319
		c-0.735,0-1.362,0.26-1.882,0.779c-0.519,0.52-0.778,1.146-0.778,1.881v10.641c0,0.734,0.26,1.361,0.778,1.881
		c0.52,0.52,1.146,0.779,1.882,0.779h5.319c0.735,0,1.362-0.26,1.881-0.779c0.52-0.52,0.779-1.146,0.779-1.881v-1.064h-5.32v-5.32
		h10.641v6.385c0,1.114-0.209,2.152-0.627,3.115s-0.988,1.805-1.71,2.527c-0.723,0.723-1.571,1.292-2.546,1.71
		c-0.976,0.418-2.008,0.627-3.098,0.627h-5.319c-1.115,0-2.153-0.209-3.116-0.627s-1.806-0.987-2.527-1.71s-1.292-1.564-1.71-2.527
		s-0.627-2.001-0.627-3.115v-10.641c0-1.09,0.209-2.121,0.627-3.097s0.988-1.824,1.71-2.546c0.722-0.723,1.564-1.292,2.527-1.711
		c0.963-0.418,2.001-0.627,3.116-0.627h5.319c1.09,0,2.122,0.209,3.098,0.627c0.975,0.419,1.823,0.988,2.546,1.711
		c0.722,0.722,1.292,1.57,1.71,2.546s0.627,2.007,0.627,3.097v1.33H194.409z M191.749-139.999c1.216,0,2.28,0.38,3.192,1.14
		s1.494,1.711,1.748,2.85h0.532c-0.127-0.633-0.355-1.229-0.685-1.785c-0.329-0.558-0.734-1.039-1.216-1.444
		s-1.026-0.722-1.634-0.95c-0.608-0.228-1.254-0.342-1.938-0.342h-5.319c-0.761,0-1.482,0.146-2.166,0.438
		c-0.685,0.291-1.279,0.689-1.786,1.197c-0.507,0.506-0.906,1.102-1.197,1.785s-0.437,1.406-0.437,2.166v10.641
		c0,0.76,0.146,1.481,0.437,2.166c0.291,0.684,0.69,1.279,1.197,1.785c0.507,0.508,1.102,0.906,1.786,1.197
		c0.684,0.291,1.405,0.438,2.166,0.438h5.319c0.76,0,1.482-0.146,2.166-0.438c0.685-0.291,1.279-0.689,1.786-1.197
		c0.507-0.506,0.906-1.102,1.197-1.785c0.291-0.685,0.437-1.406,0.437-2.166v-3.99h-5.852v0.531h5.32v3.459
		c0,0.684-0.134,1.336-0.399,1.957c-0.266,0.62-0.627,1.158-1.083,1.615c-0.456,0.455-0.994,0.816-1.615,1.082
		c-0.62,0.266-1.272,0.399-1.957,0.399h-5.319c-0.685,0-1.337-0.134-1.957-0.399c-0.621-0.266-1.159-0.627-1.615-1.082
		c-0.456-0.457-0.817-0.995-1.083-1.615c-0.267-0.621-0.399-1.273-0.399-1.957v-10.641c0-0.684,0.133-1.336,0.399-1.957
		c0.266-0.621,0.627-1.158,1.083-1.615c0.456-0.455,0.994-0.816,1.615-1.082c0.62-0.267,1.272-0.399,1.957-0.399H191.749
		L191.749-139.999z M212.231-132.209c2.204,0.329,3.958,0.867,5.263,1.615c1.305,0.747,2.299,1.558,2.983,2.432
		c0.684,0.874,1.121,1.735,1.311,2.584c0.19,0.849,0.285,1.539,0.285,2.07c0,1.064-0.222,2.053-0.665,2.965
		s-1.052,1.697-1.824,2.355c-0.772,0.659-1.685,1.178-2.735,1.559c-1.052,0.38-2.198,0.57-3.439,0.57
		c-1.292,0-2.451-0.133-3.477-0.399c-1.026-0.267-1.944-0.614-2.755-1.045v1.178h-5.32v-7.979h5.32
		c0.455,0.506,0.905,0.943,1.349,1.311s0.899,0.672,1.368,0.912s0.987,0.418,1.558,0.531c0.57,0.115,1.223,0.172,1.957,0.172
		c0.963,0,1.761-0.203,2.395-0.607c0.633-0.406,0.949-0.912,0.949-1.521c0-0.557-0.164-1.031-0.493-1.424
		c-0.33-0.393-0.748-0.723-1.255-0.988c-0.506-0.266-1.076-0.481-1.71-0.646c-0.633-0.164-1.254-0.297-1.861-0.398
		c-2.128-0.33-3.838-0.836-5.13-1.52c-1.292-0.685-2.287-1.432-2.983-2.242s-1.159-1.641-1.387-2.49
		c-0.229-0.848-0.342-1.602-0.342-2.26c0-1.09,0.221-2.104,0.664-3.041s1.059-1.754,1.844-2.451c0.785-0.695,1.697-1.24,2.735-1.633
		c1.039-0.393,2.166-0.59,3.382-0.59c1.293,0,2.42,0.121,3.383,0.361c0.962,0.24,1.836,0.576,2.622,1.007v-1.103h5.319v7.98h-5.357
		c-0.431-0.48-0.849-0.905-1.254-1.273c-0.405-0.367-0.836-0.67-1.292-0.911s-0.957-0.425-1.501-0.552
		c-0.545-0.126-1.185-0.189-1.92-0.189c-1.038,0-1.849,0.254-2.432,0.76c-0.583,0.507-0.874,1.052-0.874,1.635
		C206.911-133.88,208.685-132.791,212.231-132.209L212.231-132.209z M218.007-120.011c0.381-0.328,0.754-0.778,1.121-1.348
		c0.367-0.57,0.552-1.287,0.552-2.148c0-0.48-0.089-1.031-0.267-1.652c-0.177-0.621-0.545-1.234-1.102-1.843
		c-0.558-0.608-1.35-1.172-2.375-1.69c-1.026-0.52-2.388-0.906-4.085-1.16c-4.89-0.76-7.334-2.635-7.334-5.623
		c0-0.583,0.126-1.16,0.38-1.729c0.253-0.569,0.627-1.083,1.121-1.539s1.096-0.823,1.805-1.103c0.709-0.277,1.507-0.418,2.394-0.418
		c1.622,0,2.965,0.254,4.028,0.761c1.064,0.507,2.052,1.229,2.964,2.166h1.938v-3.192h-0.532v2.66h-1.178
		c-0.659-0.709-1.388-1.279-2.186-1.71s-1.615-0.747-2.451-0.95c-0.709-0.178-1.57-0.266-2.584-0.266
		c-0.887,0-1.703,0.139-2.45,0.418c-0.748,0.278-1.406,0.652-1.977,1.121s-1.013,1.025-1.33,1.672
		c-0.316,0.646-0.475,1.35-0.475,2.109c0,1.038,0.24,1.912,0.722,2.621s1.096,1.305,1.843,1.787c0.748,0.48,1.584,0.854,2.509,1.12
		c0.924,0.267,1.83,0.462,2.717,0.589c1.596,0.254,2.882,0.615,3.856,1.084c0.976,0.469,1.723,0.987,2.242,1.557
		c0.52,0.57,0.861,1.141,1.026,1.711c0.164,0.57,0.247,1.07,0.247,1.5c0,0.66-0.146,1.268-0.438,1.824
		c-0.291,0.559-0.69,1.033-1.196,1.426c-0.507,0.393-1.108,0.703-1.806,0.931c-0.696,0.228-1.463,0.343-2.299,0.343
		c-1.697,0-3.091-0.254-4.18-0.761c-1.09-0.507-2.115-1.229-3.078-2.166h-1.9v3.192h0.532v-2.66h1.216
		c0.507,0.531,1.02,0.981,1.539,1.349c0.52,0.368,1.077,0.665,1.672,0.894c0.596,0.228,1.235,0.398,1.919,0.513
		c0.685,0.114,1.444,0.171,2.28,0.171c0.912,0,1.761-0.133,2.546-0.398C216.74-119.118,217.425-119.504,218.007-120.011
		L218.007-120.011z"/>
</g>
<g id="SvgjsG1012" transform="translate(165.3306528690223,148.51812895539945) scale(1.1448327276211683)" xmlns:name="symbol_mainfill">
	<g>
		<g>
			<path fill="#FFFFFF" d="M35.45-61.318c0,0-2.34,5.818-5.644,5.042c-0.611-1.892-2.14-3.835-6.747-2.561v-4.736
				c0.013-0.019,0.026-0.036,0.038-0.053c0.841-1.181,1.285-2.439,1.496-3.431c0.256,0.073,3.782,0.732,3.782-4.228
				c0-2.591-2.258-7.722-6.851-8.981c-1.181-0.176-2.358,0.419-2.956,0.908c-0.789-0.201-4.508-0.201-5.299,0.001
				c-0.467-0.388-1.113-0.903-2.029-0.977c-0.071-0.566-0.234-1.13-0.498-1.67L4.2-95.486c-4.77-10.472-8.438-13.424-15.42-13.092
				c3.693-2.13,5.887-5.52,5.887-9.751c0-6.087-4.936-11.021-11.021-11.021c-6.087,0-11.021,4.934-11.021,11.021
				c0,4.231,2.586,8.032,5.886,9.751c-6.741-0.28-10.594,2.62-15.362,13.092l-6.544,13.485c-1.297,2.658-0.247,6.101,2.868,7.342
				l-3.501,3.502c-0.655-0.065-3.411-0.065-4.066,0l-4.355-4.354c0,0-2.664,3.646-2.511,7.948c-0.125-0.404-1.402-4.534-5.971-5.018
				c-1.247-0.103-2.703,0.827-2.854,2.123c-0.419,3.586,2.44,3.444,2.86,4.262c0.209,0.405,0.24,1.368-0.688,3.589
				c-3.92,9.308,2.11,12.358,3.315,12.856c0.291,0.792,0.604,1.532,0.881,2.145c-0.899,0.652-1.618,1.716-1.618,3.279
				c0,1.875,1.401,3.815,3.748,3.815c0.664,0,1.2-0.197,1.611-0.48c0.689,0.46,1.519,0.738,2.392,0.738
				c3.562,0,4.889-1.605,5.145-1.929c0.252,0.311,1.52,1.929,5.13,1.929c0.873,0,1.702-0.278,2.391-0.738
				c0.412,0.283,0.949,0.48,1.613,0.48c2.346,0,3.748-1.94,3.748-3.815c0-1.563-0.719-2.626-1.618-3.279
				c2.18-4.862,2.214-7.776,1.314-9.279c-0.382-0.638-1.773-2.448-5.546-1.341v-0.85c1.187-1.303,2.405-3.436,1.666-6.474
				c1.082-4.536-1.59-8.746-1.59-8.746c2.63,0.27,4.586-1.492,5.319-2.982l4.443-8.582l-4.961,24.65h6.889v15.115
				c0,3.156,2.567,5.725,5.723,5.725c2.387,0,4.438-1.471,5.295-3.552c0.85,2.1,2.91,3.584,5.309,3.584
				c3.156,0,5.725-2.567,5.725-5.725V-61.21h7.066l-5.04-24.421l4.324,8.353c0.518,1.051,1.645,2.236,3.186,2.749
				c-2.417,6.931,1.925,8.046,3.012,7.478c0.244,2.134,1.495,3.441,1.547,3.511v4.704c-3.781-1.452-5.661,0.572-6.211,1.407
				c-1.88,3.373,0.205,8.885,0.439,9.556c-1.007,0.663-1.842,1.794-1.842,3.507c0,2.099,1.989,3.939,4.257,3.939
				c1.467,0,2.603-0.606,2.854-0.751c0.699,0.467,1.541,0.751,2.427,0.751c1.788,0,4.126-0.488,5.194-1.953
				c1.033,1.465,3.418,1.953,5.211,1.953c0.885,0,1.727-0.284,2.426-0.751c0.252,0.145,1.387,0.751,2.854,0.751
				c2.267,0,4.257-1.841,4.257-3.939c0-1.713-0.835-2.845-1.841-3.507c0.013-0.034,0.024-0.069,0.036-0.104
				C39.387-51.334,35.45-61.318,35.45-61.318z M-26.097-118.327c0-5.382,4.361-9.743,9.742-9.743c5.38,0,9.742,4.361,9.742,9.743
				c0,5.381-4.362,9.742-9.742,9.742C-21.735-108.585-26.097-112.947-26.097-118.327z M-54.913-63.697
				c0.025,1.657,0.665,3.189,1.728,4.435v1.036c-0.837-0.246-2.128-0.546-3.583-0.179C-56.626-58.961-55.162-62.687-54.913-63.697z
				 M-54.878-42.058c-0.107,0.032-2.466,0.266-2.466-2.104c0-2.255,2.255-2.45,2.255-2.45s-1.119-2.089-1.874-4.385
				c-0.992-0.293-6.789-2.4-3.127-11.035c0.968-2.316,1.966-5.577-1.263-6.493c-0.697-0.196-1.087-0.938-0.879-1.63
				c0.17-0.568,0.901-1.142,1.631-0.879c1.809,0.543,2.995,1.454,3.625,2.786c0.83,1.756,0.603,4.12-0.696,7.227
				c-1.086,2.6-1.622,5.446,0.035,6.694c-0.055-3.762,3.589-2.445,4.514-2.133v8.692c-1.211,0.597-2.335,1.803-2.335,3.791
				C-55.457-43.289-55.242-42.633-54.878-42.058z M-40.908-41.785c-2.91,0-4.478-1.123-4.478-3.097c0-0.85,0-2.39,0-3.871
				c1.529-0.358,2.667-1.731,2.667-3.369c-0.192,1.728-1.68,2.687-3.461,2.687c-1.781,0-3.27-0.959-3.462-2.687
				c0,1.663,1.171,3.05,2.734,3.383c0,1.471,0,2.996,0,3.856c0,2.021-1.57,3.097-4.478,3.097c-1.402,0-2.566-1.162-2.566-2.245
				c0-2.349,2.348-2.554,2.348-2.554v-11.34c1.531,1.032,3.454,1.65,5.542,1.65c2.01,0,3.869-0.572,5.371-1.535v11.226
				c0,0,2.347,0.205,2.347,2.554C-38.343-42.946-39.505-41.785-40.908-41.785z M-36.854-57.101c5.267,0-0.322,10.432-0.322,10.432
				s2.284,0.197,2.284,2.481c0,2.445-2.389,2.162-2.498,2.131c0.369-0.583,0.588-1.249,0.588-1.942c0-2.013-1.137-3.234-2.364-3.84
				v-8.802C-38.232-56.959-37.468-57.101-36.854-57.101z M-38.984-65.53c1.598,4.852-2.995,7.927-7.078,7.927
				c-4.082,0-8.575-3.173-7.078-7.927c-0.401-1.273-0.865-4.019,0.926-7.406l3.453,3.454c0.418-0.137,4.979-0.137,5.397,0
				l3.454-3.454C-38.12-69.549-38.583-66.804-38.984-65.53z M2.303-77.904L-6.68-95.298l6.749,32.695H-6.68v16.542
				c0,2.393-1.939,4.332-4.333,4.332c-2.392,0-4.331-1.94-4.331-4.332v-16.54h-1.94v16.508c0,2.394-1.939,4.333-4.332,4.333
				c-2.393,0-4.332-1.94-4.332-4.333v-16.508h-6.58l6.58-32.695l-9.005,17.394c-0.692,1.417-2.852,3.013-5.347,1.836
				c-1.98-0.967-2.809-3.345-1.843-5.326l6.514-13.419c3.549-7.339,5.94-12.376,13.009-12.376h12.593
				c7.068,0,9.46,5.037,13.009,12.376l6.513,13.419c0.201,0.413,0.323,0.842,0.374,1.272c-2.5,0.813-4.606,3.807-4.939,4.334
				C3.681-76.12,2.722-77.044,2.303-77.904z M8.658-68.361c0-0.719,2.626-6.414,2.578-6.414c-0.868,0-2.48,3.234-3.184,4.739
				c-0.373,0.799-1.104,1.417-1.762,1.417c-0.708,0-1.329-0.714-1.329-2.688c0-3.714,4.076-7.307,5.521-7.453
				c1.514-0.154,1.922,0.787,2.243,1.21c0.868-0.381,5.517-0.383,6.382-0.005c0.313-0.41,1.252-1.401,2.276-1.205
				c1.427,0.272,5.522,3.739,5.522,7.453c0,1.974-0.621,2.688-1.328,2.688c-0.659,0-1.391-0.619-1.763-1.417
				c-0.702-1.505-2.315-4.74-3.186-4.74c-0.054,0,2.577,5.742,2.577,6.415c0,1.411-1.234,6.68-7.273,6.68
				c-3.309,0-5.088-1.583-6-2.912C8.927-66.058,8.658-67.651,8.658-68.361z M7.072-42.285c-0.463,0.5-4.242,0.739-4.242-1.95
				c0-2.387,2.388-2.595,2.388-2.595S-0.6-60.587,8.874-57.211v9.098C5.294-46.048,6.703-42.871,7.072-42.285z M21.233-41.95
				c-2.943,0-4.531-1.088-4.531-3.134c0-2.044,0-7.809,0-7.809c-0.031-0.287-0.18-0.705-0.761-0.705
				c-0.61,0-0.755,0.392-0.777,0.734c0,0,0,5.782,0,7.779c0,1.998-1.589,3.134-4.53,3.134c-1.419,0-2.596-1.175-2.596-2.272
				c0-2.376,2.375-2.581,2.375-2.581v-15.202c5.041,3.371,9.77,0.949,11.041-0.003v15.206c0,0,2.376,0.206,2.376,2.581
				C23.828-43.126,22.651-41.95,21.233-41.95z M28.963-44.267c-0.421,3.276-3.848,2.089-4.216,1.938
				c0.365-0.583,1.739-3.758-1.793-5.794v-9.045c4.65-1.592,5.24,0.665,5.403,2.252c4.83,1.522,6.527-2.773,6.527-2.773
				c-0.369,6.172-6.451,8.107-7.397,8.371c-0.449,1.433-0.897,2.472-0.897,2.472S29.266-46.621,28.963-44.267z"/>
		</g>
	</g>
</g>
</svg>
