<?xml version="1.0" encoding="utf-8"?>
<!-- Generator: Adobe Illustrator 15.1.0, SVG Export Plug-In . SVG Version: 6.00 Build 0)  -->
<!DOCTYPE svg PUBLIC "-//W3C//DTD SVG 1.1//EN" "http://www.w3.org/Graphics/SVG/1.1/DTD/svg11.dtd">
<svg version="1.1" id="Layer_1" xmlns="http://www.w3.org/2000/svg" xmlns:xlink="http://www.w3.org/1999/xlink" x="0px" y="0px"
	 width="116.22px" height="102.05px" viewBox="0 0 116.22 102.05" enable-background="new 0 0 116.22 102.05" xml:space="preserve">
<g id="SvgjsG1012" transform="translate(165.3306528690223,148.51812895539945) scale(1.1448327276211683)" xmlns:name="symbol_mainfill">
	<g>
		<g>
			<path fill="#FFFFFF" d="M-65.928-71.886c0,0-1.355,3.37-3.269,2.92c-0.354-1.095-1.239-2.221-3.908-1.483v-2.743
				c0.008-0.011,0.015-0.021,0.022-0.031c0.487-0.684,0.744-1.413,0.866-1.988c0.149,0.043,2.191,0.424,2.191-2.448
				c0-1.501-1.308-4.473-3.967-5.202c-0.684-0.102-1.367,0.242-1.713,0.525c-0.456-0.116-2.61-0.116-3.068,0.001
				c-0.27-0.225-0.645-0.523-1.175-0.566c-0.041-0.328-0.136-0.655-0.288-0.967l-3.789-7.809c-2.762-6.065-4.887-7.775-8.931-7.582
				c2.139-1.234,3.409-3.197,3.409-5.647c0-3.526-2.858-6.384-6.383-6.384c-3.526,0-6.383,2.858-6.383,6.384
				c0,2.45,1.497,4.652,3.409,5.647c-3.904-0.162-6.136,1.517-8.897,7.582l-3.79,7.81c-0.751,1.54-0.143,3.534,1.661,4.252
				l-2.028,2.029c-0.379-0.038-1.975-0.038-2.355,0l-2.523-2.522c0,0-1.543,2.112-1.454,4.604c-0.073-0.235-0.812-2.626-3.458-2.907
				c-0.723-0.059-1.566,0.479-1.653,1.23c-0.243,2.077,1.413,1.995,1.657,2.469c0.121,0.235,0.139,0.792-0.399,2.079
				c-2.27,5.391,1.222,7.157,1.921,7.446c0.168,0.459,0.35,0.887,0.51,1.242c-0.521,0.378-0.937,0.995-0.937,1.9
				c0,1.086,0.811,2.209,2.17,2.209c0.385,0,0.695-0.114,0.934-0.278c0.399,0.266,0.88,0.427,1.385,0.427
				c2.063,0,2.832-0.93,2.98-1.117c0.146,0.181,0.88,1.117,2.971,1.117c0.505,0,0.986-0.161,1.385-0.427
				c0.239,0.164,0.549,0.278,0.934,0.278c1.358,0,2.17-1.123,2.17-2.209c0-0.905-0.416-1.522-0.937-1.9
				c1.262-2.816,1.282-4.504,0.761-5.374c-0.221-0.369-1.027-1.418-3.212-0.777v-0.492c0.688-0.754,1.393-1.99,0.965-3.749
				c0.627-2.628-0.921-5.066-0.921-5.066c1.524,0.156,2.657-0.864,3.081-1.727l2.574-4.971l-2.873,14.277h3.99v8.755
				c0,1.828,1.486,3.317,3.314,3.317c1.382,0,2.571-0.853,3.067-2.057c0.493,1.216,1.686,2.075,3.075,2.075
				c1.828,0,3.316-1.487,3.316-3.316v-8.773h4.093l-2.919-14.144l2.504,4.837c0.299,0.609,0.953,1.295,1.845,1.593
				c-1.4,4.014,1.115,4.66,1.744,4.331c0.142,1.236,0.866,1.993,0.896,2.034v2.725c-2.19-0.84-3.278,0.331-3.597,0.815
				c-1.088,1.953,0.119,5.146,0.255,5.535c-0.583,0.384-1.067,1.039-1.067,2.031c0,1.216,1.152,2.282,2.465,2.282
				c0.85,0,1.507-0.351,1.653-0.436c0.405,0.271,0.892,0.436,1.406,0.436c1.036,0,2.389-0.283,3.009-1.132
				c0.598,0.849,1.979,1.132,3.018,1.132c0.512,0,1-0.165,1.405-0.436c0.146,0.084,0.804,0.436,1.652,0.436
				c1.314,0,2.466-1.066,2.466-2.282c0-0.992-0.484-1.648-1.066-2.031c0.008-0.02,0.014-0.04,0.021-0.061
				C-63.647-66.103-65.928-71.886-65.928-71.886z M-101.574-104.905c0-3.117,2.526-5.643,5.642-5.643s5.642,2.526,5.642,5.643
				c0,3.117-2.526,5.643-5.642,5.643C-99.048-99.262-101.574-101.788-101.574-104.905z M-118.264-73.264
				c0.015,0.96,0.385,1.847,1.001,2.568v0.6c-0.485-0.142-1.233-0.316-2.075-0.103C-119.256-70.521-118.408-72.679-118.264-73.264z
				 M-118.244-60.731c-0.062,0.019-1.428,0.154-1.428-1.219c0-1.305,1.306-1.419,1.306-1.419s-0.648-1.21-1.085-2.539
				c-0.575-0.17-3.932-1.39-1.811-6.392c0.561-1.341,1.139-3.23-0.732-3.761c-0.403-0.113-0.629-0.543-0.509-0.943
				c0.099-0.329,0.522-0.661,0.945-0.509c1.048,0.315,1.735,0.843,2.099,1.614c0.481,1.017,0.349,2.386-0.403,4.185
				c-0.629,1.506-0.939,3.155,0.02,3.878c-0.032-2.179,2.079-1.417,2.614-1.236v5.035c-0.701,0.346-1.352,1.045-1.352,2.196
				C-118.579-61.443-118.455-61.064-118.244-60.731z M-110.153-60.572c-1.685,0-2.594-0.651-2.594-1.794c0-0.492,0-1.384,0-2.243
				c0.886-0.206,1.545-1.002,1.545-1.951c-0.111,1.001-0.973,1.557-2.005,1.557c-1.031,0-1.894-0.556-2.005-1.557
				c0,0.963,0.678,1.767,1.583,1.959c0,0.852,0,1.735,0,2.233c0,1.17-0.909,1.794-2.593,1.794c-0.812,0-1.487-0.673-1.487-1.3
				c0-1.361,1.36-1.479,1.36-1.479v-6.568c0.887,0.598,2,0.955,3.21,0.955c1.164,0,2.241-0.331,3.111-0.889v6.502
				c0,0,1.36,0.119,1.36,1.479C-108.667-61.245-109.34-60.572-110.153-60.572z M-107.804-69.444c3.05,0-0.187,6.042-0.187,6.042
				s1.323,0.114,1.323,1.437c0,1.416-1.384,1.252-1.447,1.234c0.214-0.338,0.341-0.723,0.341-1.125c0-1.165-0.659-1.873-1.37-2.224
				v-5.098C-108.603-69.361-108.16-69.444-107.804-69.444z M-109.038-74.326c0.926,2.81-1.735,4.591-4.1,4.591
				c-2.364,0-4.967-1.837-4.1-4.591c-0.232-0.737-0.501-2.328,0.537-4.29l2,2.001c0.242-0.079,2.884-0.079,3.126,0l2-2.001
				C-108.538-76.653-108.806-75.063-109.038-74.326z M-85.126-81.493l-5.203-10.074l3.909,18.937h-3.909v9.58
				c0,1.386-1.123,2.51-2.51,2.51c-1.386,0-2.509-1.124-2.509-2.51v-9.579h-1.123v9.561c0,1.386-1.123,2.509-2.509,2.509
				s-2.509-1.123-2.509-2.509v-9.561h-3.811l3.811-18.937l-5.215,10.075c-0.401,0.821-1.652,1.745-3.097,1.063
				c-1.147-0.56-1.627-1.937-1.068-3.085l3.773-7.772c2.055-4.251,3.44-7.168,7.534-7.168h7.294c4.094,0,5.479,2.917,7.535,7.168
				l3.772,7.772c0.117,0.239,0.188,0.488,0.217,0.737c-1.448,0.471-2.667,2.204-2.861,2.51
				C-84.327-80.459-84.883-80.994-85.126-81.493z M-81.445-75.965c0-0.416,1.521-3.715,1.493-3.715
				c-0.502,0-1.436,1.873-1.844,2.745c-0.216,0.462-0.639,0.821-1.02,0.821c-0.409,0-0.769-0.414-0.769-1.557
				c0-2.151,2.36-4.233,3.197-4.317c0.877-0.089,1.113,0.456,1.299,0.701c0.503-0.221,3.195-0.222,3.697-0.003
				c0.181-0.237,0.725-0.811,1.318-0.698c0.827,0.158,3.198,2.166,3.198,4.317c0,1.143-0.359,1.557-0.769,1.557
				c-0.382,0-0.806-0.359-1.022-0.821c-0.406-0.872-1.34-2.746-1.845-2.746c-0.031,0,1.493,3.326,1.493,3.716
				c0,0.817-0.715,3.869-4.212,3.869c-1.917,0-2.947-0.917-3.475-1.687C-81.289-74.632-81.445-75.554-81.445-75.965z
				 M-82.364-60.862c-0.268,0.29-2.457,0.428-2.457-1.129c0-1.383,1.383-1.503,1.383-1.503s-3.369-7.968,2.118-6.012v5.269
				C-83.393-63.042-82.577-61.202-82.364-60.862z M-74.162-60.669c-1.704,0-2.624-0.63-2.624-1.815c0-1.183,0-4.522,0-4.522
				c-0.019-0.167-0.104-0.409-0.441-0.409c-0.353,0-0.437,0.227-0.45,0.425c0,0,0,3.349,0,4.506c0,1.158-0.92,1.815-2.624,1.815
				c-0.822,0-1.504-0.681-1.504-1.316c0-1.376,1.376-1.494,1.376-1.494v-8.805c2.919,1.952,5.658,0.549,6.394-0.002v8.807
				c0,0,1.376,0.119,1.376,1.495C-72.659-61.349-73.34-60.669-74.162-60.669z M-69.685-62.011c-0.243,1.898-2.228,1.21-2.441,1.123
				c0.212-0.337,1.007-2.176-1.038-3.356v-5.238c2.693-0.922,3.035,0.385,3.129,1.304c2.798,0.882,3.781-1.606,3.781-1.606
				c-0.214,3.575-3.736,4.695-4.285,4.849c-0.259,0.83-0.519,1.431-0.519,1.431S-69.509-63.374-69.685-62.011z"/>
		</g>
	</g>
</g>
</svg>
